<?xml version="1.0" standalone="no"?>
<!DOCTYPE svg PUBLIC "-//W3C//DTD SVG 20010904//EN"
 "http://www.w3.org/TR/2001/REC-SVG-20010904/DTD/svg10.dtd">
<svg version="1.0" xmlns="http://www.w3.org/2000/svg"
 width="700.000000pt" height="700.000000pt" viewBox="0 0 700.000000 700.000000"
 preserveAspectRatio="xMidYMid meet">
<metadata>
Created by potrace 1.14, written by Peter Selinger 2001-2017
</metadata>
<g transform="translate(0.000000,700.000000) scale(0.100000,-0.100000)"
fill="#000000" stroke="none">
<path d="M3279 6299 l-221 -221 1288 -1289 1289 -1289 -1289 -1289 -1288
-1288 221 -221 221 -222 1510 1510 1510 1510 -758 757 c-416 417 -1096 1097
-1509 1510 l-753 753 -221 -221z"/>
<path d="M1540 4515 l-1015 -1015 1016 -1016 1016 -1016 1017 1017 1016 1016
-1015 1015 c-559 558 -1017 1014 -1018 1014 -1 0 -459 -457 -1017 -1015z
m1226 -29 c112 -112 204 -208 204 -212 0 -5 -173 -181 -383 -392 l-383 -382
383 -383 c210 -210 383 -386 383 -391 0 -5 -93 -101 -206 -214 l-205 -206
-597 597 -597 597 595 595 c327 327 597 595 599 595 2 0 95 -92 207 -204z"/>
</g>
</svg>
